<?xml version="1.0" encoding="UTF-8"?>
<svg id="Layer_2" data-name="Layer 2" xmlns="http://www.w3.org/2000/svg" viewBox="0 0 124 124">
  <defs>
    <style>
      .cls-1 {
        fill: #f7c23c;
      }

      .cls-2 {
        fill: none;
      }
    </style>
  </defs>
  <g id="Layer_3" data-name="Layer 3">
    <g>
      <rect class="cls-2" width="124" height="124"/>
      <path class="cls-1" d="m72.8,17.69c14.81,0,14.55,9.3,14.55,9.3l2.09,44.82c0,6.4-7.85,14.25-7.85,14.25l.93,20.23h-28.61s.93-17.62.93-20.23c-7.27,0-24.3-12.79-24.3-26.75v-16.38c0-2.25,2.04-3.85,4.36-3.85s4.36,1.45,4.36,4.65v11.51c0,2.62,1.98,3.49,4.59,3.49s4.01-1.16,4.01-3.49.87-26.22,1.16-28.26.29-9.3,13.96-9.3h9.81Z"/>
    </g>
  </g>
</svg>